# MagicaVoxel @ Ephtracy

# group
o 

# material
mtllib Tomb-1.mtl
usemtl palette

# normals
vn -1 0 0
vn 1 0 0
vn 0 0 1
vn 0 0 -1
vn 0 -1 0
vn 0 1 0

# texcoords
vt 0.982422 0.5

# verts
v -1.6 -2.3 0.35
v -1.6 -2.3 -0.55
v -1.6 -2.2 0.35
v -1.6 -2.2 -0.55
v -1.5 -2.3 0.45
v -1.5 -2.3 0.35
v -1.5 -2.2 0.45
v -1.5 -2.2 0.35
v -1.5 -2.2 -0.55
v -1.5 1.6 0.35
v -1.5 1.6 -0.55
v -1.4 -2.3 0.55
v -1.4 -2.3 0.45
v -1.4 -2.2 0.55
v -1.4 -2.2 0.45
v -1.4 -2.2 0.35
v -1.4 1.6 0.45
v -1.4 1.6 0.35
v -1.4 1.6 -0.55
v -1.4 1.7 0.35
v -1.4 1.7 -0.55
v -1.3 1.6 0.45
v -1.3 1.6 0.35
v -1.3 1.7 0.35
v -1.3 1.7 -0.55
v -1.3 1.8 0.45
v -1.3 1.8 0.35
v -1.3 1.9 0.35
v -1.3 1.9 -0.55
v -1.2 -2.2 0.45
v -1.2 -2.2 0.35
v -1.2 1.4 0.45
v -1.2 1.4 0.35
v -1.2 1.8 0.45
v -1.2 1.8 0.35
v -1.2 1.9 0.45
v -1.2 1.9 0.35
v -1.1 1.4 0.45
v -1.1 1.4 0.35
v -1.1 1.6 0.45
v -1.1 1.6 0.35
v -1.1 1.9 0.45
v -1.1 1.9 -0.55
v -1.1 2 0.45
v -1.1 2 0.35
v -1.1 2.1 0.35
v -1.1 2.1 -0.55
v -1 1.6 0.45
v -1 1.6 0.35
v -1 1.7 0.45
v -1 1.7 0.35
v -1 2 0.45
v -1 2 0.35
v -1 2.1 0.45
v -1 2.1 0.35
v -0.9 1.7 0.45
v -0.9 1.7 0.35
v -0.9 1.8 0.45
v -0.9 1.8 0.35
v -0.9 2.1 0.35
v -0.9 2.1 -0.55
v -0.9 2.2 0.35
v -0.9 2.2 0.15
v -0.9 2.3 0.15
v -0.9 2.3 -0.55
v -0.8 1.8 0.45
v -0.8 1.8 0.35
v -0.8 1.9 0.45
v -0.8 1.9 0.35
v -0.8 2.1 0.45
v -0.8 2.1 0.35
v -0.8 2.2 0.45
v -0.8 2.2 0.35
v -0.8 2.2 0.25
v -0.8 2.2 0.15
v -0.8 2.3 0.25
v -0.8 2.3 0.15
v -0.7 2.2 0.35
v -0.7 2.2 0.25
v -0.7 2.3 0.35
v -0.7 2.3 0.25
v -0.6 1.9 0.45
v -0.6 1.9 0.35
v -0.6 2 0.45
v -0.6 2 0.35
v 0.7 2 0.45
v 0.7 2 0.35
v 0.7 2.1 0.45
v 0.7 2.1 0.35
v 0.9 1.9 0.45
v 0.9 1.9 0.35
v 0.9 2 0.45
v 0.9 2 0.35
v 1 1.8 0.45
v 1 1.8 0.35
v 1 1.9 0.45
v 1 1.9 0.35
v 1.1 1.7 0.45
v 1.1 1.7 0.35
v 1.1 1.8 0.45
v 1.1 1.8 0.35
v 1.2 1.5 0.45
v 1.2 1.5 0.35
v 1.2 1.7 0.45
v 1.2 1.7 0.35
v 1.3 -2.2 0.45
v 1.3 -2.2 0.35
v 1.3 1.5 0.45
v 1.3 1.5 0.35
v -1.3 -2.2 0.45
v -1.3 -2.2 0.35
v -1.3 1.5 0.45
v -1.3 1.5 0.35
v -1.2 1.5 0.45
v -1.2 1.5 0.35
v -1.2 1.7 0.45
v -1.2 1.7 0.35
v -1.1 1.7 0.45
v -1.1 1.7 0.35
v -1.1 1.8 0.45
v -1.1 1.8 0.35
v -1 1.8 0.45
v -1 1.8 0.35
v -1 1.9 0.45
v -1 1.9 0.35
v -0.9 1.9 0.45
v -0.9 1.9 0.35
v -0.9 2 0.45
v -0.9 2 0.35
v -0.7 2 0.45
v -0.7 2 0.35
v -0.7 2.1 0.45
v -0.7 2.1 0.35
v 0.6 1.9 0.45
v 0.6 1.9 0.35
v 0.6 2 0.45
v 0.6 2 0.35
v 0.7 2.2 0.35
v 0.7 2.2 0.25
v 0.7 2.3 0.35
v 0.7 2.3 0.25
v 0.8 1.8 0.45
v 0.8 1.8 0.35
v 0.8 1.9 0.45
v 0.8 1.9 0.35
v 0.8 2.1 0.45
v 0.8 2.1 0.35
v 0.8 2.2 0.45
v 0.8 2.2 0.35
v 0.8 2.2 0.25
v 0.8 2.2 0.15
v 0.8 2.3 0.25
v 0.8 2.3 0.15
v 0.9 1.7 0.45
v 0.9 1.7 0.35
v 0.9 1.8 0.45
v 0.9 1.8 0.35
v 0.9 2.1 0.35
v 0.9 2.1 -0.55
v 0.9 2.2 0.35
v 0.9 2.2 0.15
v 0.9 2.3 0.15
v 0.9 2.3 -0.55
v 1 1.6 0.45
v 1 1.6 0.35
v 1 1.7 0.45
v 1 1.7 0.35
v 1 2 0.45
v 1 2 0.35
v 1 2.1 0.45
v 1 2.1 0.35
v 1.1 1.4 0.45
v 1.1 1.4 0.35
v 1.1 1.6 0.45
v 1.1 1.6 0.35
v 1.1 1.9 0.45
v 1.1 1.9 -0.55
v 1.1 2 0.45
v 1.1 2 0.35
v 1.1 2.1 0.35
v 1.1 2.1 -0.55
v 1.2 -2.2 0.45
v 1.2 -2.2 0.35
v 1.2 1.4 0.45
v 1.2 1.4 0.35
v 1.2 1.8 0.45
v 1.2 1.8 0.35
v 1.2 1.9 0.45
v 1.2 1.9 0.35
v 1.3 1.6 0.45
v 1.3 1.6 0.35
v 1.3 1.7 0.35
v 1.3 1.7 -0.55
v 1.3 1.8 0.45
v 1.3 1.8 0.35
v 1.3 1.9 0.35
v 1.3 1.9 -0.55
v 1.4 -2.3 0.55
v 1.4 -2.3 0.45
v 1.4 -2.2 0.55
v 1.4 -2.2 0.45
v 1.4 -2.2 0.35
v 1.4 1.6 0.45
v 1.4 1.6 0.35
v 1.4 1.6 -0.55
v 1.4 1.7 0.35
v 1.4 1.7 -0.55
v 1.5 -2.3 0.45
v 1.5 -2.3 0.35
v 1.5 -2.2 0.45
v 1.5 -2.2 0.35
v 1.5 -2.2 -0.55
v 1.5 1.6 0.35
v 1.5 1.6 -0.55
v 1.6 -2.3 0.35
v 1.6 -2.3 -0.55
v 1.6 -2.2 0.35
v 1.6 -2.2 -0.55
v -1.4 -2.3 0.55
v -1.4 -2.2 0.55
v 1.4 -2.3 0.55
v 1.4 -2.2 0.55
v -1.5 -2.3 0.45
v -1.5 -2.2 0.45
v -1.4 -2.3 0.45
v -1.4 -2.2 0.45
v -1.4 1.6 0.45
v -1.3 -2.2 0.45
v -1.3 1.5 0.45
v -1.3 1.6 0.45
v -1.3 1.8 0.45
v -1.2 -2.2 0.45
v -1.2 1.4 0.45
v -1.2 1.5 0.45
v -1.2 1.7 0.45
v -1.2 1.8 0.45
v -1.2 1.9 0.45
v -1.1 1.4 0.45
v -1.1 1.6 0.45
v -1.1 1.7 0.45
v -1.1 1.8 0.45
v -1.1 1.9 0.45
v -1.1 2 0.45
v -1 1.6 0.45
v -1 1.7 0.45
v -1 1.8 0.45
v -1 1.9 0.45
v -1 2 0.45
v -1 2.1 0.45
v -0.9 1.7 0.45
v -0.9 1.8 0.45
v -0.9 1.9 0.45
v -0.9 2 0.45
v -0.8 1.8 0.45
v -0.8 1.9 0.45
v -0.8 2.1 0.45
v -0.8 2.2 0.45
v -0.7 2 0.45
v -0.7 2.1 0.45
v -0.6 1.9 0.45
v -0.6 2 0.45
v 0.6 1.9 0.45
v 0.6 2 0.45
v 0.7 2 0.45
v 0.7 2.1 0.45
v 0.8 1.8 0.45
v 0.8 1.9 0.45
v 0.8 2.1 0.45
v 0.8 2.2 0.45
v 0.9 1.7 0.45
v 0.9 1.8 0.45
v 0.9 1.9 0.45
v 0.9 2 0.45
v 1 1.6 0.45
v 1 1.7 0.45
v 1 1.8 0.45
v 1 1.9 0.45
v 1 2 0.45
v 1 2.1 0.45
v 1.1 1.4 0.45
v 1.1 1.6 0.45
v 1.1 1.7 0.45
v 1.1 1.8 0.45
v 1.1 1.9 0.45
v 1.1 2 0.45
v 1.2 -2.2 0.45
v 1.2 1.4 0.45
v 1.2 1.5 0.45
v 1.2 1.7 0.45
v 1.2 1.8 0.45
v 1.2 1.9 0.45
v 1.3 -2.2 0.45
v 1.3 1.5 0.45
v 1.3 1.6 0.45
v 1.3 1.8 0.45
v 1.4 -2.3 0.45
v 1.4 -2.2 0.45
v 1.4 1.6 0.45
v 1.5 -2.3 0.45
v 1.5 -2.2 0.45
v -1.6 -2.3 0.35
v -1.6 -2.2 0.35
v -1.5 -2.3 0.35
v -1.5 -2.2 0.35
v -1.5 1.6 0.35
v -1.4 -2.2 0.35
v -1.4 1.6 0.35
v -1.4 1.7 0.35
v -1.3 -2.2 0.35
v -1.3 1.5 0.35
v -1.3 1.6 0.35
v -1.3 1.7 0.35
v -1.3 1.8 0.35
v -1.3 1.9 0.35
v -1.2 -2.2 0.35
v -1.2 1.4 0.35
v -1.2 1.5 0.35
v -1.2 1.7 0.35
v -1.2 1.8 0.35
v -1.2 1.9 0.35
v -1.1 1.4 0.35
v -1.1 1.6 0.35
v -1.1 1.7 0.35
v -1.1 1.8 0.35
v -1.1 2 0.35
v -1.1 2.1 0.35
v -1 1.6 0.35
v -1 1.7 0.35
v -1 1.8 0.35
v -1 1.9 0.35
v -1 2 0.35
v -1 2.1 0.35
v -0.9 1.7 0.35
v -0.9 1.8 0.35
v -0.9 1.9 0.35
v -0.9 2 0.35
v -0.9 2.1 0.35
v -0.9 2.2 0.35
v -0.8 1.8 0.35
v -0.8 1.9 0.35
v -0.8 2.1 0.35
v -0.8 2.2 0.35
v -0.7 2 0.35
v -0.7 2.1 0.35
v -0.7 2.2 0.35
v -0.7 2.3 0.35
v -0.6 1.9 0.35
v -0.6 2 0.35
v 0.6 1.9 0.35
v 0.6 2 0.35
v 0.7 2 0.35
v 0.7 2.1 0.35
v 0.7 2.2 0.35
v 0.7 2.3 0.35
v 0.8 1.8 0.35
v 0.8 1.9 0.35
v 0.8 2.1 0.35
v 0.8 2.2 0.35
v 0.9 1.7 0.35
v 0.9 1.8 0.35
v 0.9 1.9 0.35
v 0.9 2 0.35
v 0.9 2.1 0.35
v 0.9 2.2 0.35
v 1 1.6 0.35
v 1 1.7 0.35
v 1 1.8 0.35
v 1 1.9 0.35
v 1 2 0.35
v 1 2.1 0.35
v 1.1 1.4 0.35
v 1.1 1.6 0.35
v 1.1 1.7 0.35
v 1.1 1.8 0.35
v 1.1 2 0.35
v 1.1 2.1 0.35
v 1.2 -2.2 0.35
v 1.2 1.4 0.35
v 1.2 1.5 0.35
v 1.2 1.7 0.35
v 1.2 1.8 0.35
v 1.2 1.9 0.35
v 1.3 -2.2 0.35
v 1.3 1.5 0.35
v 1.3 1.6 0.35
v 1.3 1.7 0.35
v 1.3 1.8 0.35
v 1.3 1.9 0.35
v 1.4 -2.2 0.35
v 1.4 1.6 0.35
v 1.4 1.7 0.35
v 1.5 -2.3 0.35
v 1.5 -2.2 0.35
v 1.5 1.6 0.35
v 1.6 -2.3 0.35
v 1.6 -2.2 0.35
v -0.8 2.2 0.25
v -0.8 2.3 0.25
v -0.7 2.2 0.25
v -0.7 2.3 0.25
v 0.7 2.2 0.25
v 0.7 2.3 0.25
v 0.8 2.2 0.25
v 0.8 2.3 0.25
v -0.9 2.2 0.15
v -0.9 2.3 0.15
v -0.8 2.2 0.15
v -0.8 2.3 0.15
v 0.8 2.2 0.15
v 0.8 2.3 0.15
v 0.9 2.2 0.15
v 0.9 2.3 0.15
v -1.6 -2.3 -0.55
v -1.6 -2.2 -0.55
v -1.5 -2.2 -0.55
v -1.5 1.6 -0.55
v -1.4 1.6 -0.55
v -1.4 1.7 -0.55
v -1.3 1.7 -0.55
v -1.3 1.9 -0.55
v -1.1 1.9 -0.55
v -1.1 2.1 -0.55
v -0.9 2.1 -0.55
v -0.9 2.3 -0.55
v 0.9 2.1 -0.55
v 0.9 2.3 -0.55
v 1.1 1.9 -0.55
v 1.1 2.1 -0.55
v 1.3 1.7 -0.55
v 1.3 1.9 -0.55
v 1.4 1.6 -0.55
v 1.4 1.7 -0.55
v 1.5 -2.2 -0.55
v 1.5 1.6 -0.55
v 1.6 -2.3 -0.55
v 1.6 -2.2 -0.55
v -1.4 -2.3 0.55
v 1.4 -2.3 0.55
v -1.5 -2.3 0.45
v -1.4 -2.3 0.45
v 1.4 -2.3 0.45
v 1.5 -2.3 0.45
v -1.6 -2.3 0.35
v -1.5 -2.3 0.35
v 1.5 -2.3 0.35
v 1.6 -2.3 0.35
v -1.6 -2.3 -0.55
v 1.6 -2.3 -0.55
v -1.3 1.5 0.45
v -1.2 1.5 0.45
v 1.2 1.5 0.45
v 1.3 1.5 0.45
v -1.3 1.5 0.35
v -1.2 1.5 0.35
v 1.2 1.5 0.35
v 1.3 1.5 0.35
v -1.2 1.7 0.45
v -1.1 1.7 0.45
v 1.1 1.7 0.45
v 1.2 1.7 0.45
v -1.2 1.7 0.35
v -1.1 1.7 0.35
v 1.1 1.7 0.35
v 1.2 1.7 0.35
v -1.1 1.8 0.45
v -1 1.8 0.45
v 1 1.8 0.45
v 1.1 1.8 0.45
v -1.1 1.8 0.35
v -1 1.8 0.35
v 1 1.8 0.35
v 1.1 1.8 0.35
v -1 1.9 0.45
v -0.9 1.9 0.45
v 0.9 1.9 0.45
v 1 1.9 0.45
v -1 1.9 0.35
v -0.9 1.9 0.35
v 0.9 1.9 0.35
v 1 1.9 0.35
v -0.9 2 0.45
v -0.7 2 0.45
v 0.7 2 0.45
v 0.9 2 0.45
v -0.9 2 0.35
v -0.7 2 0.35
v 0.7 2 0.35
v 0.9 2 0.35
v -0.7 2.1 0.45
v 0.7 2.1 0.45
v -0.7 2.1 0.35
v 0.7 2.1 0.35
v -1.4 -2.2 0.55
v 1.4 -2.2 0.55
v -1.5 -2.2 0.45
v -1.4 -2.2 0.45
v -1.3 -2.2 0.45
v -1.2 -2.2 0.45
v 1.2 -2.2 0.45
v 1.3 -2.2 0.45
v 1.4 -2.2 0.45
v 1.5 -2.2 0.45
v -1.6 -2.2 0.35
v -1.5 -2.2 0.35
v -1.4 -2.2 0.35
v -1.3 -2.2 0.35
v -1.2 -2.2 0.35
v 1.2 -2.2 0.35
v 1.3 -2.2 0.35
v 1.4 -2.2 0.35
v 1.5 -2.2 0.35
v 1.6 -2.2 0.35
v -1.6 -2.2 -0.55
v -1.5 -2.2 -0.55
v 1.5 -2.2 -0.55
v 1.6 -2.2 -0.55
v -1.2 1.4 0.45
v -1.1 1.4 0.45
v 1.1 1.4 0.45
v 1.2 1.4 0.45
v -1.2 1.4 0.35
v -1.1 1.4 0.35
v 1.1 1.4 0.35
v 1.2 1.4 0.35
v -1.4 1.6 0.45
v -1.3 1.6 0.45
v -1.1 1.6 0.45
v -1 1.6 0.45
v 1 1.6 0.45
v 1.1 1.6 0.45
v 1.3 1.6 0.45
v 1.4 1.6 0.45
v -1.5 1.6 0.35
v -1.4 1.6 0.35
v -1.3 1.6 0.35
v -1.1 1.6 0.35
v -1 1.6 0.35
v 1 1.6 0.35
v 1.1 1.6 0.35
v 1.3 1.6 0.35
v 1.4 1.6 0.35
v 1.5 1.6 0.35
v -1.5 1.6 -0.55
v -1.4 1.6 -0.55
v 1.4 1.6 -0.55
v 1.5 1.6 -0.55
v -1 1.7 0.45
v -0.9 1.7 0.45
v 0.9 1.7 0.45
v 1 1.7 0.45
v -1.4 1.7 0.35
v -1.3 1.7 0.35
v -1 1.7 0.35
v -0.9 1.7 0.35
v 0.9 1.7 0.35
v 1 1.7 0.35
v 1.3 1.7 0.35
v 1.4 1.7 0.35
v -1.4 1.7 -0.55
v -1.3 1.7 -0.55
v 1.3 1.7 -0.55
v 1.4 1.7 -0.55
v -1.3 1.8 0.45
v -1.2 1.8 0.45
v -0.9 1.8 0.45
v -0.8 1.8 0.45
v 0.8 1.8 0.45
v 0.9 1.8 0.45
v 1.2 1.8 0.45
v 1.3 1.8 0.45
v -1.3 1.8 0.35
v -1.2 1.8 0.35
v -0.9 1.8 0.35
v -0.8 1.8 0.35
v 0.8 1.8 0.35
v 0.9 1.8 0.35
v 1.2 1.8 0.35
v 1.3 1.8 0.35
v -1.2 1.9 0.45
v -1.1 1.9 0.45
v -0.8 1.9 0.45
v -0.6 1.9 0.45
v 0.6 1.9 0.45
v 0.8 1.9 0.45
v 1.1 1.9 0.45
v 1.2 1.9 0.45
v -1.3 1.9 0.35
v -1.2 1.9 0.35
v -0.8 1.9 0.35
v -0.6 1.9 0.35
v 0.6 1.9 0.35
v 0.8 1.9 0.35
v 1.2 1.9 0.35
v 1.3 1.9 0.35
v -1.3 1.9 -0.55
v -1.1 1.9 -0.55
v 1.1 1.9 -0.55
v 1.3 1.9 -0.55
v -1.1 2 0.45
v -1 2 0.45
v -0.6 2 0.45
v 0.6 2 0.45
v 1 2 0.45
v 1.1 2 0.45
v -1.1 2 0.35
v -1 2 0.35
v -0.6 2 0.35
v 0.6 2 0.35
v 1 2 0.35
v 1.1 2 0.35
v -1 2.1 0.45
v -0.8 2.1 0.45
v 0.8 2.1 0.45
v 1 2.1 0.45
v -1.1 2.1 0.35
v -1 2.1 0.35
v -0.9 2.1 0.35
v -0.8 2.1 0.35
v 0.8 2.1 0.35
v 0.9 2.1 0.35
v 1 2.1 0.35
v 1.1 2.1 0.35
v -1.1 2.1 -0.55
v -0.9 2.1 -0.55
v 0.9 2.1 -0.55
v 1.1 2.1 -0.55
v -0.8 2.2 0.45
v 0.8 2.2 0.45
v -0.9 2.2 0.35
v -0.8 2.2 0.35
v -0.7 2.2 0.35
v 0.7 2.2 0.35
v 0.8 2.2 0.35
v 0.9 2.2 0.35
v -0.8 2.2 0.25
v -0.7 2.2 0.25
v 0.7 2.2 0.25
v 0.8 2.2 0.25
v -0.9 2.2 0.15
v -0.8 2.2 0.15
v 0.8 2.2 0.15
v 0.9 2.2 0.15
v -0.7 2.3 0.35
v 0.7 2.3 0.35
v -0.8 2.3 0.25
v -0.7 2.3 0.25
v 0.7 2.3 0.25
v 0.8 2.3 0.25
v -0.9 2.3 0.15
v -0.8 2.3 0.15
v 0.8 2.3 0.15
v 0.9 2.3 0.15
v -0.9 2.3 -0.55
v 0.9 2.3 -0.55

# faces
f 3/1/1 2/1/1 1/1/1
f 4/1/1 2/1/1 3/1/1
f 7/1/1 6/1/1 5/1/1
f 8/1/1 6/1/1 7/1/1
f 10/1/1 9/1/1 8/1/1
f 11/1/1 9/1/1 10/1/1
f 14/1/1 13/1/1 12/1/1
f 15/1/1 13/1/1 14/1/1
f 17/1/1 16/1/1 15/1/1
f 18/1/1 16/1/1 17/1/1
f 20/1/1 19/1/1 18/1/1
f 21/1/1 19/1/1 20/1/1
f 24/1/1 23/1/1 22/1/1
f 26/1/1 24/1/1 22/1/1
f 26/1/1 25/1/1 24/1/1
f 27/1/1 25/1/1 26/1/1
f 28/1/1 25/1/1 27/1/1
f 29/1/1 25/1/1 28/1/1
f 32/1/1 31/1/1 30/1/1
f 33/1/1 31/1/1 32/1/1
f 36/1/1 35/1/1 34/1/1
f 37/1/1 35/1/1 36/1/1
f 40/1/1 39/1/1 38/1/1
f 41/1/1 39/1/1 40/1/1
f 44/1/1 43/1/1 42/1/1
f 45/1/1 43/1/1 44/1/1
f 46/1/1 43/1/1 45/1/1
f 47/1/1 43/1/1 46/1/1
f 50/1/1 49/1/1 48/1/1
f 51/1/1 49/1/1 50/1/1
f 54/1/1 53/1/1 52/1/1
f 55/1/1 53/1/1 54/1/1
f 58/1/1 57/1/1 56/1/1
f 59/1/1 57/1/1 58/1/1
f 62/1/1 61/1/1 60/1/1
f 63/1/1 61/1/1 62/1/1
f 64/1/1 61/1/1 63/1/1
f 65/1/1 61/1/1 64/1/1
f 68/1/1 67/1/1 66/1/1
f 69/1/1 67/1/1 68/1/1
f 72/1/1 71/1/1 70/1/1
f 73/1/1 71/1/1 72/1/1
f 76/1/1 75/1/1 74/1/1
f 77/1/1 75/1/1 76/1/1
f 80/1/1 79/1/1 78/1/1
f 81/1/1 79/1/1 80/1/1
f 84/1/1 83/1/1 82/1/1
f 85/1/1 83/1/1 84/1/1
f 88/1/1 87/1/1 86/1/1
f 89/1/1 87/1/1 88/1/1
f 92/1/1 91/1/1 90/1/1
f 93/1/1 91/1/1 92/1/1
f 96/1/1 95/1/1 94/1/1
f 97/1/1 95/1/1 96/1/1
f 100/1/1 99/1/1 98/1/1
f 101/1/1 99/1/1 100/1/1
f 104/1/1 103/1/1 102/1/1
f 105/1/1 103/1/1 104/1/1
f 108/1/1 107/1/1 106/1/1
f 109/1/1 107/1/1 108/1/1
f 110/1/2 111/1/2 112/1/2
f 112/1/2 111/1/2 113/1/2
f 114/1/2 115/1/2 116/1/2
f 116/1/2 115/1/2 117/1/2
f 118/1/2 119/1/2 120/1/2
f 120/1/2 119/1/2 121/1/2
f 122/1/2 123/1/2 124/1/2
f 124/1/2 123/1/2 125/1/2
f 126/1/2 127/1/2 128/1/2
f 128/1/2 127/1/2 129/1/2
f 130/1/2 131/1/2 132/1/2
f 132/1/2 131/1/2 133/1/2
f 134/1/2 135/1/2 136/1/2
f 136/1/2 135/1/2 137/1/2
f 138/1/2 139/1/2 140/1/2
f 140/1/2 139/1/2 141/1/2
f 142/1/2 143/1/2 144/1/2
f 144/1/2 143/1/2 145/1/2
f 146/1/2 147/1/2 148/1/2
f 148/1/2 147/1/2 149/1/2
f 150/1/2 151/1/2 152/1/2
f 152/1/2 151/1/2 153/1/2
f 154/1/2 155/1/2 156/1/2
f 156/1/2 155/1/2 157/1/2
f 158/1/2 159/1/2 160/1/2
f 160/1/2 159/1/2 161/1/2
f 161/1/2 159/1/2 162/1/2
f 162/1/2 159/1/2 163/1/2
f 164/1/2 165/1/2 166/1/2
f 166/1/2 165/1/2 167/1/2
f 168/1/2 169/1/2 170/1/2
f 170/1/2 169/1/2 171/1/2
f 172/1/2 173/1/2 174/1/2
f 174/1/2 173/1/2 175/1/2
f 176/1/2 177/1/2 178/1/2
f 178/1/2 177/1/2 179/1/2
f 179/1/2 177/1/2 180/1/2
f 180/1/2 177/1/2 181/1/2
f 182/1/2 183/1/2 184/1/2
f 184/1/2 183/1/2 185/1/2
f 186/1/2 187/1/2 188/1/2
f 188/1/2 187/1/2 189/1/2
f 190/1/2 191/1/2 192/1/2
f 190/1/2 192/1/2 194/1/2
f 192/1/2 193/1/2 194/1/2
f 194/1/2 193/1/2 195/1/2
f 195/1/2 193/1/2 196/1/2
f 196/1/2 193/1/2 197/1/2
f 198/1/2 199/1/2 200/1/2
f 200/1/2 199/1/2 201/1/2
f 201/1/2 202/1/2 203/1/2
f 203/1/2 202/1/2 204/1/2
f 204/1/2 205/1/2 206/1/2
f 206/1/2 205/1/2 207/1/2
f 208/1/2 209/1/2 210/1/2
f 210/1/2 209/1/2 211/1/2
f 211/1/2 212/1/2 213/1/2
f 213/1/2 212/1/2 214/1/2
f 215/1/2 216/1/2 217/1/2
f 217/1/2 216/1/2 218/1/2
f 221/1/3 220/1/3 219/1/3
f 222/1/3 220/1/3 221/1/3
f 225/1/3 224/1/3 223/1/3
f 226/1/3 224/1/3 225/1/3
f 228/1/3 227/1/3 226/1/3
f 229/1/3 227/1/3 228/1/3
f 230/1/3 227/1/3 229/1/3
f 234/1/3 231/1/3 230/1/3
f 234/1/3 230/1/3 229/1/3
f 235/1/3 231/1/3 234/1/3
f 236/1/3 231/1/3 235/1/3
f 238/1/3 233/1/3 232/1/3
f 240/1/3 237/1/3 236/1/3
f 240/1/3 236/1/3 235/1/3
f 241/1/3 237/1/3 240/1/3
f 242/1/3 237/1/3 241/1/3
f 244/1/3 239/1/3 238/1/3
f 246/1/3 243/1/3 242/1/3
f 246/1/3 242/1/3 241/1/3
f 247/1/3 243/1/3 246/1/3
f 248/1/3 243/1/3 247/1/3
f 250/1/3 245/1/3 244/1/3
f 252/1/3 249/1/3 248/1/3
f 252/1/3 248/1/3 247/1/3
f 253/1/3 249/1/3 252/1/3
f 254/1/3 251/1/3 250/1/3
f 256/1/3 249/1/3 253/1/3
f 258/1/3 256/1/3 253/1/3
f 258/1/3 257/1/3 256/1/3
f 259/1/3 257/1/3 258/1/3
f 260/1/3 255/1/3 254/1/3
f 262/1/3 260/1/3 254/1/3
f 262/1/3 261/1/3 260/1/3
f 263/1/3 261/1/3 262/1/3
f 265/1/3 257/1/3 259/1/3
f 266/1/3 262/1/3 254/1/3
f 266/1/3 254/1/3 250/1/3
f 267/1/3 262/1/3 266/1/3
f 268/1/3 265/1/3 264/1/3
f 268/1/3 257/1/3 265/1/3
f 269/1/3 257/1/3 268/1/3
f 270/1/3 250/1/3 244/1/3
f 270/1/3 266/1/3 250/1/3
f 271/1/3 266/1/3 270/1/3
f 273/1/3 268/1/3 264/1/3
f 274/1/3 244/1/3 238/1/3
f 274/1/3 270/1/3 244/1/3
f 275/1/3 270/1/3 274/1/3
f 277/1/3 273/1/3 272/1/3
f 278/1/3 268/1/3 273/1/3
f 278/1/3 273/1/3 277/1/3
f 279/1/3 268/1/3 278/1/3
f 280/1/3 238/1/3 232/1/3
f 280/1/3 274/1/3 238/1/3
f 281/1/3 274/1/3 280/1/3
f 283/1/3 278/1/3 277/1/3
f 283/1/3 277/1/3 276/1/3
f 284/1/3 278/1/3 283/1/3
f 285/1/3 278/1/3 284/1/3
f 286/1/3 280/1/3 232/1/3
f 287/1/3 280/1/3 286/1/3
f 289/1/3 284/1/3 283/1/3
f 289/1/3 283/1/3 282/1/3
f 290/1/3 284/1/3 289/1/3
f 291/1/3 284/1/3 290/1/3
f 293/1/3 289/1/3 288/1/3
f 293/1/3 290/1/3 289/1/3
f 294/1/3 290/1/3 293/1/3
f 295/1/3 290/1/3 294/1/3
f 297/1/3 293/1/3 292/1/3
f 297/1/3 294/1/3 293/1/3
f 298/1/3 294/1/3 297/1/3
f 299/1/3 297/1/3 296/1/3
f 300/1/3 297/1/3 299/1/3
f 303/1/3 302/1/3 301/1/3
f 304/1/3 302/1/3 303/1/3
f 306/1/3 305/1/3 304/1/3
f 307/1/3 305/1/3 306/1/3
f 311/1/3 308/1/3 307/1/3
f 312/1/3 308/1/3 311/1/3
f 315/1/3 310/1/3 309/1/3
f 316/1/3 310/1/3 315/1/3
f 317/1/3 310/1/3 316/1/3
f 319/1/3 314/1/3 313/1/3
f 320/1/3 314/1/3 319/1/3
f 321/1/3 318/1/3 317/1/3
f 321/1/3 317/1/3 316/1/3
f 322/1/3 318/1/3 321/1/3
f 323/1/3 318/1/3 322/1/3
f 327/1/3 324/1/3 323/1/3
f 327/1/3 323/1/3 322/1/3
f 328/1/3 324/1/3 327/1/3
f 329/1/3 324/1/3 328/1/3
f 331/1/3 326/1/3 325/1/3
f 332/1/3 326/1/3 331/1/3
f 333/1/3 330/1/3 329/1/3
f 333/1/3 329/1/3 328/1/3
f 334/1/3 330/1/3 333/1/3
f 335/1/3 330/1/3 334/1/3
f 339/1/3 336/1/3 335/1/3
f 339/1/3 335/1/3 334/1/3
f 340/1/3 336/1/3 339/1/3
f 341/1/3 338/1/3 337/1/3
f 342/1/3 338/1/3 341/1/3
f 343/1/3 336/1/3 340/1/3
f 347/1/3 344/1/3 343/1/3
f 347/1/3 343/1/3 340/1/3
f 348/1/3 344/1/3 347/1/3
f 350/1/3 344/1/3 348/1/3
f 351/1/3 344/1/3 350/1/3
f 351/1/3 350/1/3 349/1/3
f 352/1/3 344/1/3 351/1/3
f 353/1/3 346/1/3 345/1/3
f 354/1/3 346/1/3 353/1/3
f 356/1/3 351/1/3 349/1/3
f 360/1/3 356/1/3 355/1/3
f 361/1/3 351/1/3 356/1/3
f 361/1/3 356/1/3 360/1/3
f 362/1/3 351/1/3 361/1/3
f 363/1/3 358/1/3 357/1/3
f 364/1/3 358/1/3 363/1/3
f 366/1/3 360/1/3 359/1/3
f 366/1/3 361/1/3 360/1/3
f 367/1/3 361/1/3 366/1/3
f 368/1/3 361/1/3 367/1/3
f 372/1/3 366/1/3 365/1/3
f 372/1/3 367/1/3 366/1/3
f 373/1/3 367/1/3 372/1/3
f 374/1/3 367/1/3 373/1/3
f 375/1/3 370/1/3 369/1/3
f 376/1/3 370/1/3 375/1/3
f 378/1/3 372/1/3 371/1/3
f 378/1/3 373/1/3 372/1/3
f 379/1/3 373/1/3 378/1/3
f 380/1/3 373/1/3 379/1/3
f 383/1/3 378/1/3 377/1/3
f 383/1/3 379/1/3 378/1/3
f 384/1/3 379/1/3 383/1/3
f 387/1/3 382/1/3 381/1/3
f 388/1/3 382/1/3 387/1/3
f 390/1/3 386/1/3 385/1/3
f 391/1/3 386/1/3 390/1/3
f 393/1/3 390/1/3 389/1/3
f 394/1/3 390/1/3 393/1/3
f 395/1/3 393/1/3 392/1/3
f 396/1/3 393/1/3 395/1/3
f 399/1/3 398/1/3 397/1/3
f 400/1/3 398/1/3 399/1/3
f 403/1/3 402/1/3 401/1/3
f 404/1/3 402/1/3 403/1/3
f 407/1/3 406/1/3 405/1/3
f 408/1/3 406/1/3 407/1/3
f 411/1/3 410/1/3 409/1/3
f 412/1/3 410/1/3 411/1/3
f 413/1/4 414/1/4 415/1/4
f 415/1/4 416/1/4 417/1/4
f 417/1/4 418/1/4 419/1/4
f 419/1/4 420/1/4 421/1/4
f 421/1/4 422/1/4 423/1/4
f 421/1/4 423/1/4 425/1/4
f 423/1/4 424/1/4 425/1/4
f 425/1/4 424/1/4 426/1/4
f 419/1/4 421/1/4 427/1/4
f 421/1/4 425/1/4 427/1/4
f 427/1/4 425/1/4 428/1/4
f 417/1/4 419/1/4 429/1/4
f 419/1/4 427/1/4 429/1/4
f 429/1/4 427/1/4 430/1/4
f 415/1/4 417/1/4 431/1/4
f 417/1/4 429/1/4 431/1/4
f 431/1/4 429/1/4 432/1/4
f 413/1/4 415/1/4 433/1/4
f 415/1/4 431/1/4 433/1/4
f 433/1/4 431/1/4 434/1/4
f 413/1/4 433/1/4 435/1/4
f 435/1/4 433/1/4 436/1/4
f 440/1/5 438/1/5 437/1/5
f 441/1/5 438/1/5 440/1/5
f 444/1/5 440/1/5 439/1/5
f 444/1/5 442/1/5 441/1/5
f 444/1/5 441/1/5 440/1/5
f 445/1/5 442/1/5 444/1/5
f 447/1/5 444/1/5 443/1/5
f 447/1/5 446/1/5 445/1/5
f 447/1/5 445/1/5 444/1/5
f 448/1/5 446/1/5 447/1/5
f 453/1/5 450/1/5 449/1/5
f 454/1/5 450/1/5 453/1/5
f 455/1/5 452/1/5 451/1/5
f 456/1/5 452/1/5 455/1/5
f 461/1/5 458/1/5 457/1/5
f 462/1/5 458/1/5 461/1/5
f 463/1/5 460/1/5 459/1/5
f 464/1/5 460/1/5 463/1/5
f 469/1/5 466/1/5 465/1/5
f 470/1/5 466/1/5 469/1/5
f 471/1/5 468/1/5 467/1/5
f 472/1/5 468/1/5 471/1/5
f 477/1/5 474/1/5 473/1/5
f 478/1/5 474/1/5 477/1/5
f 479/1/5 476/1/5 475/1/5
f 480/1/5 476/1/5 479/1/5
f 485/1/5 482/1/5 481/1/5
f 486/1/5 482/1/5 485/1/5
f 487/1/5 484/1/5 483/1/5
f 488/1/5 484/1/5 487/1/5
f 491/1/5 490/1/5 489/1/5
f 492/1/5 490/1/5 491/1/5
f 493/1/6 494/1/6 496/1/6
f 496/1/6 494/1/6 497/1/6
f 497/1/6 494/1/6 498/1/6
f 498/1/6 494/1/6 499/1/6
f 499/1/6 494/1/6 500/1/6
f 500/1/6 494/1/6 501/1/6
f 495/1/6 496/1/6 504/1/6
f 504/1/6 496/1/6 505/1/6
f 497/1/6 498/1/6 506/1/6
f 506/1/6 498/1/6 507/1/6
f 499/1/6 500/1/6 508/1/6
f 508/1/6 500/1/6 509/1/6
f 501/1/6 502/1/6 510/1/6
f 510/1/6 502/1/6 511/1/6
f 503/1/6 504/1/6 513/1/6
f 513/1/6 504/1/6 514/1/6
f 511/1/6 512/1/6 515/1/6
f 515/1/6 512/1/6 516/1/6
f 517/1/6 518/1/6 521/1/6
f 521/1/6 518/1/6 522/1/6
f 519/1/6 520/1/6 523/1/6
f 523/1/6 520/1/6 524/1/6
f 525/1/6 526/1/6 534/1/6
f 534/1/6 526/1/6 535/1/6
f 527/1/6 528/1/6 536/1/6
f 536/1/6 528/1/6 537/1/6
f 529/1/6 530/1/6 538/1/6
f 538/1/6 530/1/6 539/1/6
f 531/1/6 532/1/6 540/1/6
f 540/1/6 532/1/6 541/1/6
f 533/1/6 534/1/6 543/1/6
f 543/1/6 534/1/6 544/1/6
f 541/1/6 542/1/6 545/1/6
f 545/1/6 542/1/6 546/1/6
f 547/1/6 548/1/6 553/1/6
f 553/1/6 548/1/6 554/1/6
f 549/1/6 550/1/6 555/1/6
f 555/1/6 550/1/6 556/1/6
f 551/1/6 552/1/6 559/1/6
f 559/1/6 552/1/6 560/1/6
f 557/1/6 558/1/6 561/1/6
f 561/1/6 558/1/6 562/1/6
f 563/1/6 564/1/6 571/1/6
f 571/1/6 564/1/6 572/1/6
f 565/1/6 566/1/6 573/1/6
f 573/1/6 566/1/6 574/1/6
f 567/1/6 568/1/6 575/1/6
f 575/1/6 568/1/6 576/1/6
f 569/1/6 570/1/6 577/1/6
f 577/1/6 570/1/6 578/1/6
f 579/1/6 580/1/6 588/1/6
f 581/1/6 582/1/6 589/1/6
f 589/1/6 582/1/6 590/1/6
f 583/1/6 584/1/6 591/1/6
f 591/1/6 584/1/6 592/1/6
f 585/1/6 586/1/6 593/1/6
f 587/1/6 588/1/6 595/1/6
f 588/1/6 580/1/6 596/1/6
f 595/1/6 588/1/6 596/1/6
f 593/1/6 594/1/6 597/1/6
f 585/1/6 593/1/6 597/1/6
f 597/1/6 594/1/6 598/1/6
f 599/1/6 600/1/6 605/1/6
f 605/1/6 600/1/6 606/1/6
f 601/1/6 602/1/6 607/1/6
f 607/1/6 602/1/6 608/1/6
f 603/1/6 604/1/6 609/1/6
f 609/1/6 604/1/6 610/1/6
f 611/1/6 612/1/6 616/1/6
f 616/1/6 612/1/6 617/1/6
f 617/1/6 612/1/6 618/1/6
f 613/1/6 614/1/6 619/1/6
f 619/1/6 614/1/6 620/1/6
f 620/1/6 614/1/6 621/1/6
f 615/1/6 616/1/6 623/1/6
f 616/1/6 617/1/6 623/1/6
f 623/1/6 617/1/6 624/1/6
f 621/1/6 622/1/6 625/1/6
f 620/1/6 621/1/6 625/1/6
f 625/1/6 622/1/6 626/1/6
f 627/1/6 628/1/6 630/1/6
f 630/1/6 628/1/6 631/1/6
f 631/1/6 628/1/6 632/1/6
f 632/1/6 628/1/6 633/1/6
f 629/1/6 630/1/6 635/1/6
f 630/1/6 631/1/6 635/1/6
f 635/1/6 631/1/6 636/1/6
f 633/1/6 634/1/6 637/1/6
f 632/1/6 633/1/6 637/1/6
f 637/1/6 634/1/6 638/1/6
f 629/1/6 635/1/6 639/1/6
f 639/1/6 635/1/6 640/1/6
f 638/1/6 634/1/6 641/1/6
f 641/1/6 634/1/6 642/1/6
f 643/1/6 644/1/6 646/1/6
f 646/1/6 644/1/6 647/1/6
f 645/1/6 646/1/6 650/1/6
f 647/1/6 648/1/6 650/1/6
f 646/1/6 647/1/6 650/1/6
f 650/1/6 648/1/6 651/1/6
f 649/1/6 650/1/6 653/1/6
f 651/1/6 652/1/6 653/1/6
f 650/1/6 651/1/6 653/1/6
f 653/1/6 652/1/6 654/1/6
